<svg height="2238" width="720" xmlns="http://www.w3.org/2000/svg">
<rect height="2238" fill="#555" width="720"></rect>
<text fill="#7f7" font-family="Courier New" font-size="12" xml:space="preserve">
<tspan x="10" y="26">32 megabytes installed</tspan>
<tspan x="10" y="42"></tspan>
<tspan x="10" y="58">node_modules</tspan>
<tspan x="10" y="74">├── UNMET PEER DEPENDENCY coffee-script@&gt;=1.6.2 &lt;2</tspan>
<tspan x="10" y="90">└─┬ nesh@1.7.0 </tspan>
<tspan x="10" y="106">  ├─┬ babel-core@5.8.38 </tspan>
<tspan x="10" y="122">  │ ├── babel-plugin-constant-folding@1.0.1 </tspan>
<tspan x="10" y="138">  │ ├── babel-plugin-dead-code-elimination@1.0.2 </tspan>
<tspan x="10" y="154">  │ ├── babel-plugin-eval@1.0.1 </tspan>
<tspan x="10" y="170">  │ ├── babel-plugin-inline-environment-variables@1.0.1 </tspan>
<tspan x="10" y="186">  │ ├── babel-plugin-jscript@1.0.4 </tspan>
<tspan x="10" y="202">  │ ├── babel-plugin-member-expression-literals@1.0.1 </tspan>
<tspan x="10" y="218">  │ ├── babel-plugin-property-literals@1.0.1 </tspan>
<tspan x="10" y="234">  │ ├── babel-plugin-proto-to-assign@1.0.4 </tspan>
<tspan x="10" y="250">  │ ├── babel-plugin-react-constant-elements@1.0.3 </tspan>
<tspan x="10" y="266">  │ ├── babel-plugin-react-display-name@1.0.3 </tspan>
<tspan x="10" y="282">  │ ├── babel-plugin-remove-console@1.0.1 </tspan>
<tspan x="10" y="298">  │ ├── babel-plugin-remove-debugger@1.0.1 </tspan>
<tspan x="10" y="314">  │ ├── babel-plugin-runtime@1.0.7 </tspan>
<tspan x="10" y="330">  │ ├─┬ babel-plugin-undeclared-variables-check@1.0.2 </tspan>
<tspan x="10" y="346">  │ │ └── leven@1.0.2 </tspan>
<tspan x="10" y="362">  │ ├── babel-plugin-undefined-to-void@1.1.6 </tspan>
<tspan x="10" y="378">  │ ├── babylon@5.8.38 </tspan>
<tspan x="10" y="394">  │ ├── bluebird@2.11.0 </tspan>
<tspan x="10" y="410">  │ ├─┬ chalk@1.1.3 </tspan>
<tspan x="10" y="426">  │ │ ├── ansi-styles@2.2.1 </tspan>
<tspan x="10" y="442">  │ │ ├── escape-string-regexp@1.0.5 </tspan>
<tspan x="10" y="458">  │ │ ├─┬ has-ansi@2.0.0 </tspan>
<tspan x="10" y="474">  │ │ │ └── ansi-regex@2.1.1 </tspan>
<tspan x="10" y="490">  │ │ ├── strip-ansi@3.0.1 </tspan>
<tspan x="10" y="506">  │ │ └── supports-color@2.0.0 </tspan>
<tspan x="10" y="522">  │ ├── convert-source-map@1.5.0 </tspan>
<tspan x="10" y="538">  │ ├── core-js@1.2.7 </tspan>
<tspan x="10" y="554">  │ ├─┬ debug@2.6.4 </tspan>
<tspan x="10" y="570">  │ │ └── ms@0.7.3 </tspan>
<tspan x="10" y="586">  │ ├─┬ detect-indent@3.0.1 </tspan>
<tspan x="10" y="602">  │ │ ├── get-stdin@4.0.1 </tspan>
<tspan x="10" y="618">  │ │ └── minimist@1.2.0 </tspan>
<tspan x="10" y="634">  │ ├── esutils@2.0.2 </tspan>
<tspan x="10" y="650">  │ ├── fs-readdir-recursive@0.1.2 </tspan>
<tspan x="10" y="666">  │ ├── globals@6.4.1 </tspan>
<tspan x="10" y="682">  │ ├─┬ home-or-tmp@1.0.0 </tspan>
<tspan x="10" y="698">  │ │ ├── os-tmpdir@1.0.2 </tspan>
<tspan x="10" y="714">  │ │ └── user-home@1.1.1 </tspan>
<tspan x="10" y="730">  │ ├─┬ is-integer@1.0.6 </tspan>
<tspan x="10" y="746">  │ │ └─┬ is-finite@1.0.2 </tspan>
<tspan x="10" y="762">  │ │   └── number-is-nan@1.0.1 </tspan>
<tspan x="10" y="778">  │ ├── js-tokens@1.0.1 </tspan>
<tspan x="10" y="794">  │ ├── json5@0.4.0 </tspan>
<tspan x="10" y="810">  │ ├── lodash@3.10.1 </tspan>
<tspan x="10" y="826">  │ ├─┬ minimatch@2.0.10 </tspan>
<tspan x="10" y="842">  │ │ └─┬ brace-expansion@1.1.7 </tspan>
<tspan x="10" y="858">  │ │   ├── balanced-match@0.4.2 </tspan>
<tspan x="10" y="874">  │ │   └── concat-map@0.0.1 </tspan>
<tspan x="10" y="890">  │ ├─┬ output-file-sync@1.1.2 </tspan>
<tspan x="10" y="906">  │ │ ├── graceful-fs@4.1.11 </tspan>
<tspan x="10" y="922">  │ │ ├─┬ mkdirp@0.5.1 </tspan>
<tspan x="10" y="938">  │ │ │ └── minimist@0.0.8 </tspan>
<tspan x="10" y="954">  │ │ └── object-assign@4.1.1 </tspan>
<tspan x="10" y="970">  │ ├── path-exists@1.0.0 </tspan>
<tspan x="10" y="986">  │ ├── path-is-absolute@1.0.1 </tspan>
<tspan x="10" y="1002">  │ ├── private@0.1.7 </tspan>
<tspan x="10" y="1018">  │ ├─┬ regenerator@0.8.40 </tspan>
<tspan x="10" y="1034">  │ │ ├─┬ commoner@0.10.8 </tspan>
<tspan x="10" y="1050">  │ │ │ ├─┬ commander@2.9.0 </tspan>
<tspan x="10" y="1066">  │ │ │ │ └── graceful-readlink@1.0.1 </tspan>
<tspan x="10" y="1082">  │ │ │ ├─┬ detective@4.5.0 </tspan>
<tspan x="10" y="1098">  │ │ │ │ ├── acorn@4.0.11 </tspan>
<tspan x="10" y="1114">  │ │ │ │ └── defined@1.0.0 </tspan>
<tspan x="10" y="1130">  │ │ │ ├─┬ glob@5.0.15 </tspan>
<tspan x="10" y="1146">  │ │ │ │ ├─┬ inflight@1.0.6 </tspan>
<tspan x="10" y="1162">  │ │ │ │ │ └── wrappy@1.0.2 </tspan>
<tspan x="10" y="1178">  │ │ │ │ ├── inherits@2.0.3 </tspan>
<tspan x="10" y="1194">  │ │ │ │ └── once@1.4.0 </tspan>
<tspan x="10" y="1210">  │ │ │ ├── iconv-lite@0.4.15 </tspan>
<tspan x="10" y="1226">  │ │ │ ├── q@1.5.0 </tspan>
<tspan x="10" y="1242">  │ │ │ └─┬ recast@0.11.23 </tspan>
<tspan x="10" y="1258">  │ │ │   ├── ast-types@0.9.6 </tspan>
<tspan x="10" y="1274">  │ │ │   └── esprima@3.1.3 </tspan>
<tspan x="10" y="1290">  │ │ ├─┬ defs@1.1.1 </tspan>
<tspan x="10" y="1306">  │ │ │ ├─┬ alter@0.2.0 </tspan>
<tspan x="10" y="1322">  │ │ │ │ └── stable@0.1.6 </tspan>
<tspan x="10" y="1338">  │ │ │ ├── ast-traverse@0.1.1 </tspan>
<tspan x="10" y="1354">  │ │ │ ├── breakable@1.0.0 </tspan>
<tspan x="10" y="1370">  │ │ │ ├── simple-fmt@0.1.0 </tspan>
<tspan x="10" y="1386">  │ │ │ ├── simple-is@0.2.0 </tspan>
<tspan x="10" y="1402">  │ │ │ ├── stringmap@0.2.2 </tspan>
<tspan x="10" y="1418">  │ │ │ ├── stringset@0.2.1 </tspan>
<tspan x="10" y="1434">  │ │ │ ├── tryor@0.1.2 </tspan>
<tspan x="10" y="1450">  │ │ │ └─┬ yargs@3.27.0 </tspan>
<tspan x="10" y="1466">  │ │ │   ├── camelcase@1.2.1 </tspan>
<tspan x="10" y="1482">  │ │ │   ├─┬ cliui@2.1.0 </tspan>
<tspan x="10" y="1498">  │ │ │   │ ├─┬ center-align@0.1.3 </tspan>
<tspan x="10" y="1514">  │ │ │   │ │ ├─┬ align-text@0.1.4 </tspan>
<tspan x="10" y="1530">  │ │ │   │ │ │ ├─┬ kind-of@3.1.0 </tspan>
<tspan x="10" y="1546">  │ │ │   │ │ │ │ └── is-buffer@1.1.5 </tspan>
<tspan x="10" y="1562">  │ │ │   │ │ │ ├── longest@1.0.1 </tspan>
<tspan x="10" y="1578">  │ │ │   │ │ │ └── repeat-string@1.6.1 </tspan>
<tspan x="10" y="1594">  │ │ │   │ │ └── lazy-cache@1.0.4 </tspan>
<tspan x="10" y="1610">  │ │ │   │ └── right-align@0.1.3 </tspan>
<tspan x="10" y="1626">  │ │ │   ├── decamelize@1.2.0 </tspan>
<tspan x="10" y="1642">  │ │ │   ├─┬ os-locale@1.4.0 </tspan>
<tspan x="10" y="1658">  │ │ │   │ └─┬ lcid@1.0.0 </tspan>
<tspan x="10" y="1674">  │ │ │   │   └── invert-kv@1.0.0 </tspan>
<tspan x="10" y="1690">  │ │ │   ├── window-size@0.1.4 </tspan>
<tspan x="10" y="1706">  │ │ │   └── y18n@3.2.1 </tspan>
<tspan x="10" y="1722">  │ │ ├── esprima-fb@15001.1001.0-dev-harmony-fb </tspan>
<tspan x="10" y="1738">  │ │ ├─┬ recast@0.10.33 </tspan>
<tspan x="10" y="1754">  │ │ │ └── ast-types@0.8.12 </tspan>
<tspan x="10" y="1770">  │ │ └── through@2.3.8 </tspan>
<tspan x="10" y="1786">  │ ├─┬ regexpu@1.3.0 </tspan>
<tspan x="10" y="1802">  │ │ ├── esprima@2.7.3 </tspan>
<tspan x="10" y="1818">  │ │ ├── regenerate@1.3.2 </tspan>
<tspan x="10" y="1834">  │ │ ├── regjsgen@0.2.0 </tspan>
<tspan x="10" y="1850">  │ │ └─┬ regjsparser@0.1.5 </tspan>
<tspan x="10" y="1866">  │ │   └── jsesc@0.5.0 </tspan>
<tspan x="10" y="1882">  │ ├── repeating@1.1.3 </tspan>
<tspan x="10" y="1898">  │ ├─┬ resolve@1.3.3 </tspan>
<tspan x="10" y="1914">  │ │ └── path-parse@1.0.5 </tspan>
<tspan x="10" y="1930">  │ ├── shebang-regex@1.0.0 </tspan>
<tspan x="10" y="1946">  │ ├── slash@1.0.0 </tspan>
<tspan x="10" y="1962">  │ ├── source-map@0.5.6 </tspan>
<tspan x="10" y="1978">  │ ├─┬ source-map-support@0.2.10 </tspan>
<tspan x="10" y="1994">  │ │ └─┬ source-map@0.1.32 </tspan>
<tspan x="10" y="2010">  │ │   └── amdefine@1.0.1 </tspan>
<tspan x="10" y="2026">  │ ├── to-fast-properties@1.0.2 </tspan>
<tspan x="10" y="2042">  │ ├── trim-right@1.0.1 </tspan>
<tspan x="10" y="2058">  │ └── try-resolve@1.0.1 </tspan>
<tspan x="10" y="2074">  ├── colors@1.1.2 </tspan>
<tspan x="10" y="2090">  ├─┬ intdoc@1.2.0 </tspan>
<tspan x="10" y="2106">  │ ├── esprima-fb@10001.1.0-dev-harmony-fb </tspan>
<tspan x="10" y="2122">  │ └── lodash-node@3.1.0 </tspan>
<tspan x="10" y="2138">  ├── lodash-node@3.10.2 </tspan>
<tspan x="10" y="2154">  ├─┬ optimist@0.6.1 </tspan>
<tspan x="10" y="2170">  │ ├── minimist@0.0.10 </tspan>
<tspan x="10" y="2186">  │ └── wordwrap@0.0.2 </tspan>
<tspan x="10" y="2202">  ├── semver@4.3.6 </tspan>
<tspan x="10" y="2218">  └── underscore@1.8.3</tspan>
</text>
</svg>
